<svg width="48" height="48" viewBox="0 0 48 48" fill="none" xmlns="http://www.w3.org/2000/svg">
<path fill-rule="evenodd" clip-rule="evenodd" d="M24 48C37.2548 48 48 37.2548 48 24C48 10.7452 37.2548 0 24 0C10.7452 0 0 10.7452 0 24C0 37.2548 10.7452 48 24 48ZM32.3536 23.6464L29.1716 20.4645C28.9763 20.2692 28.6597 20.2692 28.4645 20.4645C28.2692 20.6597 28.2692 20.9763 28.4645 21.1716L30.7929 23.5H16C15.7239 23.5 15.5 23.7239 15.5 24C15.5 24.2761 15.7239 24.5 16 24.5H30.7929L28.4645 26.8284C28.2692 27.0237 28.2692 27.3403 28.4645 27.5355C28.6597 27.7308 28.9763 27.7308 29.1716 27.5355L32.3536 24.3536C32.5488 24.1583 32.5488 23.8417 32.3536 23.6464Z" fill="white"/>
</svg>
