<svg width="180" height="16" viewBox="0 0 180 16" fill="none" xmlns="http://www.w3.org/2000/svg">
<path d="M10.9653 6.272C10.9653 7.15733 10.8533 7.96267 10.6293 8.688C10.4053 9.40267 10.0693 10.0213 9.62131 10.544C9.18398 11.0667 8.63465 11.4667 7.97331 11.744C7.32265 12.0213 6.56531 12.16 5.70131 12.16C4.80531 12.16 4.02665 12.0213 3.36531 11.744C2.70398 11.456 2.15465 11.056 1.71731 10.544C1.27998 10.0213 0.954646 9.39733 0.741313 8.672C0.527979 7.94667 0.421313 7.14133 0.421313 6.256C0.421313 5.08267 0.613313 4.05867 0.997313 3.184C1.38131 2.30933 1.96265 1.62667 2.74131 1.136C3.53065 0.645333 4.52265 0.4 5.71731 0.4C6.85865 0.4 7.81865 0.645333 8.59731 1.136C9.37598 1.616 9.96265 2.29867 10.3573 3.184C10.7626 4.05867 10.9653 5.088 10.9653 6.272ZM1.94131 6.272C1.94131 7.232 2.07465 8.05867 2.34131 8.752C2.60798 9.44533 3.01865 9.97867 3.57331 10.352C4.13865 10.7253 4.84798 10.912 5.70131 10.912C6.56531 10.912 7.26931 10.7253 7.81331 10.352C8.36798 9.97867 8.77865 9.44533 9.04531 8.752C9.31198 8.05867 9.44531 7.232 9.44531 6.272C9.44531 4.832 9.14665 3.70667 8.54931 2.896C7.95198 2.07467 7.00798 1.664 5.71731 1.664C4.85331 1.664 4.13865 1.85067 3.57331 2.224C3.01865 2.58667 2.60798 3.11467 2.34131 3.808C2.07465 4.49067 1.94131 5.312 1.94131 6.272ZM19.2253 4.608H16.4253V12H15.0333V4.608H12.2653V3.424H19.2253V4.608ZM25.9867 3.424H27.5227L23.8587 7.552L27.8267 12H26.1947L22.3227 7.648V12H20.9147V3.424H22.3227V7.584L25.9867 3.424ZM33.4634 3.264C34.5194 3.264 35.3674 3.632 36.0074 4.368C36.6581 5.104 36.9834 6.21333 36.9834 7.696C36.9834 8.66667 36.8341 9.488 36.5354 10.16C36.2474 10.8213 35.8368 11.3227 35.3034 11.664C34.7808 11.9947 34.1621 12.16 33.4474 12.16C33.0101 12.16 32.6208 12.1013 32.2794 11.984C31.9381 11.8667 31.6448 11.7173 31.3994 11.536C31.1648 11.344 30.9621 11.136 30.7914 10.912H30.6954C30.7168 11.0933 30.7381 11.3227 30.7594 11.6C30.7808 11.8773 30.7914 12.1173 30.7914 12.32V15.84H29.3834V3.424H30.5354L30.7274 4.592H30.7914C30.9621 4.34667 31.1648 4.12267 31.3994 3.92C31.6448 3.71733 31.9328 3.55733 32.2634 3.44C32.6048 3.32267 33.0048 3.264 33.4634 3.264ZM33.2074 4.448C32.6314 4.448 32.1674 4.56 31.8154 4.784C31.4634 4.99733 31.2074 5.32267 31.0474 5.76C30.8874 6.19733 30.8021 6.752 30.7914 7.424V7.696C30.7914 8.4 30.8661 8.99733 31.0154 9.488C31.1648 9.97867 31.4154 10.352 31.7674 10.608C32.1301 10.864 32.6208 10.992 33.2394 10.992C33.7621 10.992 34.1888 10.848 34.5194 10.56C34.8608 10.272 35.1114 9.88267 35.2714 9.392C35.4421 8.89067 35.5274 8.32 35.5274 7.68C35.5274 6.69867 35.3354 5.91467 34.9514 5.328C34.5781 4.74133 33.9968 4.448 33.2074 4.448ZM39.2272 12V3.424H40.6352V6.944H42.8592C43.6059 6.944 44.2192 7.03467 44.6992 7.216C45.1792 7.39733 45.5365 7.66933 45.7712 8.032C46.0059 8.384 46.1232 8.832 46.1232 9.376C46.1232 9.90933 46.0059 10.3733 45.7712 10.768C45.5472 11.1627 45.1899 11.4667 44.6992 11.68C44.2192 11.8933 43.5845 12 42.7952 12H39.2272ZM42.6672 10.864C43.2752 10.864 43.7712 10.7627 44.1552 10.56C44.5392 10.3467 44.7312 9.97867 44.7312 9.456C44.7312 8.93333 44.5552 8.58133 44.2032 8.4C43.8512 8.208 43.3445 8.112 42.6832 8.112H40.6352V10.864H42.6672ZM47.5472 12V3.424H48.9552V12H47.5472ZM57.6003 4.608H54.8003V12H53.4083V4.608H50.6403V3.424H57.6003V4.608ZM63.2417 6.944C63.9884 6.944 64.607 7.03467 65.0977 7.216C65.5884 7.39733 65.9564 7.66933 66.2017 8.032C66.4577 8.384 66.5857 8.832 66.5857 9.376C66.5857 9.90933 66.463 10.3733 66.2177 10.768C65.983 11.1627 65.615 11.4667 65.1137 11.68C64.6124 11.8933 63.967 12 63.1777 12H59.2897V3.424H60.6977V6.944H63.2417ZM65.1777 9.456C65.1777 8.93333 64.991 8.58133 64.6177 8.4C64.255 8.208 63.743 8.112 63.0817 8.112H60.6977V10.864H63.1137C63.711 10.864 64.2017 10.7573 64.5857 10.544C64.9804 10.3307 65.1777 9.968 65.1777 9.456ZM81.4908 3.424V12H80.0828V4.624H75.6508V12H74.2428V3.424H81.4908ZM88.3072 3.264C89.3632 3.264 90.2112 3.632 90.8512 4.368C91.5019 5.104 91.8272 6.21333 91.8272 7.696C91.8272 8.66667 91.6779 9.488 91.3792 10.16C91.0912 10.8213 90.6805 11.3227 90.1472 11.664C89.6245 11.9947 89.0059 12.16 88.2912 12.16C87.8539 12.16 87.4645 12.1013 87.1232 11.984C86.7819 11.8667 86.4885 11.7173 86.2432 11.536C86.0085 11.344 85.8059 11.136 85.6352 10.912H85.5392C85.5605 11.0933 85.5819 11.3227 85.6032 11.6C85.6245 11.8773 85.6352 12.1173 85.6352 12.32V15.84H84.2272V3.424H85.3792L85.5712 4.592H85.6352C85.8059 4.34667 86.0085 4.12267 86.2432 3.92C86.4885 3.71733 86.7765 3.55733 87.1072 3.44C87.4485 3.32267 87.8485 3.264 88.3072 3.264ZM88.0512 4.448C87.4752 4.448 87.0112 4.56 86.6592 4.784C86.3072 4.99733 86.0512 5.32267 85.8912 5.76C85.7312 6.19733 85.6459 6.752 85.6352 7.424V7.696C85.6352 8.4 85.7099 8.99733 85.8592 9.488C86.0085 9.97867 86.2592 10.352 86.6112 10.608C86.9739 10.864 87.4645 10.992 88.0832 10.992C88.6059 10.992 89.0325 10.848 89.3632 10.56C89.7045 10.272 89.9552 9.88267 90.1152 9.392C90.2859 8.89067 90.3712 8.32 90.3712 7.68C90.3712 6.69867 90.1792 5.91467 89.7952 5.328C89.4219 4.74133 88.8405 4.448 88.0512 4.448ZM95.3989 8.656C95.3989 8.752 95.3936 8.89067 95.3829 9.072C95.3829 9.24267 95.3776 9.42933 95.3669 9.632C95.3563 9.824 95.3456 10.0107 95.3349 10.192C95.3243 10.3627 95.3136 10.5013 95.3029 10.608L99.8949 3.424H101.623V12H100.311V6.944C100.311 6.77333 100.311 6.54933 100.311 6.272C100.322 5.99467 100.332 5.72267 100.343 5.456C100.354 5.17867 100.364 4.97067 100.375 4.832L95.8149 12H94.0709V3.424H95.3989V8.656ZM109.584 3.424V4.608H105.76V12H104.352V3.424H109.584ZM117.318 12H115.894V4.592H113.366C113.259 5.94667 113.126 7.104 112.966 8.064C112.806 9.01333 112.603 9.78667 112.358 10.384C112.112 10.9813 111.819 11.4187 111.478 11.696C111.136 11.9733 110.736 12.112 110.278 12.112C110.139 12.112 110 12.1013 109.862 12.08C109.734 12.0693 109.627 12.0427 109.542 12V10.944C109.606 10.9653 109.675 10.9813 109.75 10.992C109.824 11.0027 109.899 11.008 109.974 11.008C110.208 11.008 110.422 10.912 110.614 10.72C110.806 10.528 110.976 10.2347 111.126 9.84C111.286 9.44533 111.43 8.94933 111.558 8.352C111.686 7.744 111.798 7.02933 111.894 6.208C111.99 5.38667 112.075 4.45867 112.15 3.424H117.318V12ZM123.288 3.28C124.333 3.28 125.106 3.50933 125.608 3.968C126.109 4.42667 126.36 5.15733 126.36 6.16V12H125.336L125.064 10.784H125C124.754 11.0933 124.498 11.3547 124.232 11.568C123.976 11.7707 123.677 11.92 123.336 12.016C123.005 12.112 122.6 12.16 122.12 12.16C121.608 12.16 121.144 12.0693 120.728 11.888C120.322 11.7067 120.002 11.4293 119.768 11.056C119.533 10.672 119.416 10.192 119.416 9.616C119.416 8.76267 119.752 8.10667 120.424 7.648C121.096 7.17867 122.13 6.92267 123.528 6.88L124.984 6.832V6.32C124.984 5.60533 124.829 5.10933 124.52 4.832C124.21 4.55467 123.773 4.416 123.208 4.416C122.76 4.416 122.333 4.48533 121.928 4.624C121.522 4.752 121.144 4.90133 120.792 5.072L120.36 4.016C120.733 3.81333 121.176 3.64267 121.688 3.504C122.2 3.35467 122.733 3.28 123.288 3.28ZM123.704 7.856C122.637 7.89867 121.896 8.06933 121.48 8.368C121.074 8.66667 120.872 9.088 120.872 9.632C120.872 10.112 121.016 10.464 121.304 10.688C121.602 10.912 121.981 11.024 122.44 11.024C123.165 11.024 123.768 10.8267 124.248 10.432C124.728 10.0267 124.968 9.408 124.968 8.576V7.808L123.704 7.856ZM140.64 3.424V12H129.008V3.424H130.416V10.816H134.112V3.424H135.52V10.816H139.232V3.424H140.64ZM146.695 3.264C147.431 3.264 148.061 3.424 148.583 3.744C149.117 4.064 149.522 4.51733 149.799 5.104C150.087 5.68 150.231 6.35733 150.231 7.136V7.984H144.359C144.381 8.95467 144.626 9.696 145.095 10.208C145.575 10.7093 146.242 10.96 147.095 10.96C147.639 10.96 148.119 10.912 148.535 10.816C148.962 10.7093 149.399 10.56 149.847 10.368V11.6C149.41 11.792 148.978 11.9307 148.551 12.016C148.125 12.112 147.618 12.16 147.031 12.16C146.221 12.16 145.501 11.9947 144.871 11.664C144.253 11.3333 143.767 10.8427 143.415 10.192C143.074 9.53067 142.903 8.72533 142.903 7.776C142.903 6.83733 143.058 6.032 143.367 5.36C143.687 4.688 144.13 4.17067 144.695 3.808C145.271 3.44533 145.938 3.264 146.695 3.264ZM146.679 4.416C146.007 4.416 145.474 4.63467 145.079 5.072C144.695 5.49867 144.466 6.096 144.391 6.864H148.759C148.759 6.37333 148.685 5.94667 148.535 5.584C148.386 5.22133 148.157 4.93867 147.847 4.736C147.549 4.52267 147.159 4.416 146.679 4.416ZM153.823 3.424V6.992H158.479V3.424H159.887V12H158.479V8.176H153.823V12H152.415V3.424H153.823ZM163.93 8.656C163.93 8.752 163.925 8.89067 163.914 9.072C163.914 9.24267 163.909 9.42933 163.898 9.632C163.888 9.824 163.877 10.0107 163.866 10.192C163.856 10.3627 163.845 10.5013 163.834 10.608L168.426 3.424H170.154V12H168.842V6.944C168.842 6.77333 168.842 6.54933 168.842 6.272C168.853 5.99467 168.864 5.72267 168.874 5.456C168.885 5.17867 168.896 4.97067 168.906 4.832L164.346 12H162.602V3.424H163.93V8.656ZM176.195 3.264C176.931 3.264 177.561 3.424 178.083 3.744C178.617 4.064 179.022 4.51733 179.299 5.104C179.587 5.68 179.731 6.35733 179.731 7.136V7.984H173.859C173.881 8.95467 174.126 9.696 174.595 10.208C175.075 10.7093 175.742 10.96 176.595 10.96C177.139 10.96 177.619 10.912 178.035 10.816C178.462 10.7093 178.899 10.56 179.347 10.368V11.6C178.91 11.792 178.478 11.9307 178.051 12.016C177.625 12.112 177.118 12.16 176.531 12.16C175.721 12.16 175.001 11.9947 174.371 11.664C173.753 11.3333 173.267 10.8427 172.915 10.192C172.574 9.53067 172.403 8.72533 172.403 7.776C172.403 6.83733 172.558 6.032 172.867 5.36C173.187 4.688 173.63 4.17067 174.195 3.808C174.771 3.44533 175.438 3.264 176.195 3.264ZM176.179 4.416C175.507 4.416 174.974 4.63467 174.579 5.072C174.195 5.49867 173.966 6.096 173.891 6.864H178.259C178.259 6.37333 178.185 5.94667 178.035 5.584C177.886 5.22133 177.657 4.93867 177.347 4.736C177.049 4.52267 176.659 4.416 176.179 4.416Z" fill="white"/>
</svg>
